<mxfile host="app.diagrams.net" agent="Mozilla/5.0 (Windows NT 10.0; Win64; x64) AppleWebKit/537.36 (KHTML, like Gecko) Chrome/128.0.0.0 YaBrowser/24.10.0.0 Safari/537.36" version="25.0.3">
  <diagram name="Page-1" id="Page-1">
    <mxGraphModel dx="1370" dy="770" grid="1" gridSize="10" guides="1" tooltips="1" connect="1" arrows="1" fold="1" page="1" pageScale="1" pageWidth="1442" pageHeight="2040" math="0" shadow="0">
      <root>
        <mxCell id="0" />
        <mxCell id="1" parent="0" />
        <mxCell id="8iIWvO1PM8RjGiHxrwpC-27" value="" style="edgeStyle=orthogonalEdgeStyle;rounded=0;orthogonalLoop=1;jettySize=auto;html=1;" edge="1" parent="1" source="8iIWvO1PM8RjGiHxrwpC-19" target="14">
          <mxGeometry relative="1" as="geometry" />
        </mxCell>
        <mxCell id="8iIWvO1PM8RjGiHxrwpC-19" value="&lt;font style=&quot;letter-spacing: 0px; font-size: 13px; font-family: &amp;quot;Times New Roman&amp;quot;; direction: ltr; line-height: 15.6px; opacity: 1;&quot;&gt;Выполняем замену уже&amp;nbsp;&lt;/font&gt;&lt;div&gt;&lt;font style=&quot;font-size: 13px; font-family: &amp;quot;Times New Roman&amp;quot;; direction: ltr; letter-spacing: 0px; line-height: 15.6px; opacity: 1;&quot;&gt;изменённых символов на другие&amp;nbsp;&lt;/font&gt;&lt;div&gt;&lt;font style=&quot;font-size: 13px; font-family: &amp;quot;Times New Roman&amp;quot;; direction: ltr; letter-spacing: 0px; line-height: 15.6px; opacity: 1;&quot;&gt;посредством обёртывания&lt;/font&gt;&lt;div&gt;&lt;font style=&quot;direction: ltr; line-height: 14.4px; opacity: 1;&quot;&gt;&lt;font face=&quot;Times New Roman&quot;&gt;&lt;span style=&quot;font-size: 13px;&quot;&gt;.Replace(&quot;/&quot;, &quot;a&quot;)&lt;/span&gt;&lt;/font&gt;&lt;/font&gt;&lt;/div&gt;&lt;/div&gt;&lt;/div&gt;" style="shape=parallelogram;perimeter=parallelogramPerimeter;whiteSpace=wrap;html=1;fixedSize=1;" vertex="1" parent="1">
          <mxGeometry x="555" y="499" width="210" height="80" as="geometry" />
        </mxCell>
        <mxCell id="8iIWvO1PM8RjGiHxrwpC-21" style="vsdxID=17;edgeStyle=none;startArrow=none;endArrow=classic;startSize=5;endSize=5;strokeColor=#000000;spacingTop=0;spacingBottom=0;spacingLeft=0;spacingRight=0;verticalAlign=middle;html=1;labelBackgroundColor=#ffffff;rounded=0;exitX=0.49;exitY=0.973;exitDx=0;exitDy=0;exitPerimeter=0;" edge="1" parent="1" source="5" target="15">
          <mxGeometry relative="1" as="geometry">
            <mxPoint x="680" y="350" as="sourcePoint" />
            <mxPoint x="680" y="390" as="targetPoint" />
            <Array capacity="4" as="points" />
            <mxPoint y="124" as="offset" />
          </mxGeometry>
        </mxCell>
        <mxCell id="8iIWvO1PM8RjGiHxrwpC-24" value="" style="endArrow=classic;html=1;rounded=0;entryX=0.5;entryY=0;entryDx=0;entryDy=0;" edge="1" parent="1" target="8iIWvO1PM8RjGiHxrwpC-19">
          <mxGeometry width="50" height="50" relative="1" as="geometry">
            <mxPoint x="660" y="456" as="sourcePoint" />
            <mxPoint x="710" y="406" as="targetPoint" />
          </mxGeometry>
        </mxCell>
        <mxCell id="8iIWvO1PM8RjGiHxrwpC-26" value="" style="endArrow=classic;html=1;rounded=0;" edge="1" parent="1" target="7">
          <mxGeometry width="50" height="50" relative="1" as="geometry">
            <mxPoint x="660" y="710" as="sourcePoint" />
            <mxPoint x="710" y="660" as="targetPoint" />
          </mxGeometry>
        </mxCell>
        <mxCell id="2" value="Background" parent="0" />
        <mxCell id="3" value="&lt;font style=&quot;font-size:13px;font-family:Times New Roman;color:#000000;direction:ltr;letter-spacing:0px;line-height:120.00001%;opacity:1&quot;&gt;Начало&lt;/font&gt;" style="verticalAlign=middle;align=center;vsdxID=1;fillColor=#ffffff;gradientColor=none;shape=stencil(pZDBDsIgEER/ZbN3UjTpDfiXjd0WIkKzoG3/vmiN8eTF02ZeZieZMcXTzFCq5CsvYajeYkieJVR0ZszCk+R7GpyZqXpnbvnBsFpUGmGz2GvsnCG5gDR47hFkO26TJ/0xwapoDUVJrlRDThYbiyQTq/asxkhT8yOUhXl+y1/R6v/k7ig0hhiP9k/2Xbh7TeN2);strokeColor=#000000;spacingTop=-3;spacingBottom=-3;spacingLeft=-3;spacingRight=-3;labelBackgroundColor=none;rounded=0;html=1;whiteSpace=wrap;" parent="2" vertex="1">
          <mxGeometry x="555" y="45" width="210" height="60" as="geometry" />
        </mxCell>
        <mxCell id="4" value="&lt;font style=&quot;font-size:13px;font-family:Times New Roman;color:#000000;direction:ltr;letter-spacing:0px;line-height:120.00001%;opacity:1&quot;&gt;Объявление переменной типа&amp;nbsp;&lt;/font&gt;&lt;div&gt;&lt;font style=&quot;font-size:13px;font-family:Times New Roman;color:#000000;direction:ltr;letter-spacing:0px;line-height:120.00001%;opacity:1&quot;&gt;string:&lt;/font&gt;&lt;div&gt;&lt;font style=&quot;font-size:13px;font-family:Times New Roman;color:#000000;direction:ltr;letter-spacing:0px;line-height:120.00001%;opacity:1&quot;&gt;text = &quot;Тр_пинка, зап__х,&amp;nbsp;&lt;/font&gt;&lt;/div&gt;&lt;div&gt;&lt;font style=&quot;font-size:13px;font-family:Times New Roman;color:#000000;direction:ltr;letter-spacing:0px;line-height:120.00001%;opacity:1&quot;&gt;жур__вли, д__лёкая, _сенние,&amp;nbsp;&lt;/font&gt;&lt;/div&gt;&lt;div&gt;&lt;font style=&quot;font-size:13px;font-family:Times New Roman;color:#000000;direction:ltr;letter-spacing:0px;line-height:120.00001%;opacity:1&quot;&gt;схв__тил, д_лина&quot;&amp;nbsp;&lt;/font&gt;&lt;/div&gt;&lt;/div&gt;" style="verticalAlign=middle;align=center;vsdxID=2;fillColor=#ffffff;gradientColor=none;shape=stencil(bY5bCsIwEEW3EmYBzZRCVZjMXgqdmsGYlDRWu3sx/fH1ey6ce2jxwyxmKTld5K5j8Q40eslagGlKWc453eLINA/FM13TKubhAMFsDlpEsExBY4UtNt2hDl8Yf+Hx1PTdP8mH2e6vk4awJ77Ye5Wt/fwE);strokeColor=#000000;spacingTop=-3;spacingBottom=-3;spacingLeft=-3;spacingRight=-3;labelBackgroundColor=none;rounded=0;html=1;whiteSpace=wrap;" parent="2" vertex="1">
          <mxGeometry x="555" y="140" width="210" height="80" as="geometry" />
        </mxCell>
        <mxCell id="5" value="&lt;font style=&quot;font-size:13px;font-family:Times New Roman;color:#000000;direction:ltr;letter-spacing:0px;line-height:120.00001%;opacity:1&quot;&gt;Выполняем замену одних&amp;nbsp;&lt;/font&gt;&lt;div&gt;&lt;font style=&quot;font-size:13px;font-family:Times New Roman;color:#000000;direction:ltr;letter-spacing:0px;line-height:120.00001%;opacity:1&quot;&gt;символов на другие&amp;nbsp;&lt;/font&gt;&lt;div&gt;&lt;font style=&quot;font-size:13px;font-family:Times New Roman;color:#000000;direction:ltr;letter-spacing:0px;line-height:120.00001%;opacity:1&quot;&gt;посредством обёртывания&lt;/font&gt;&lt;div&gt;&lt;font style=&quot;font-size:13px;font-family:Times New Roman;color:#000000;direction:ltr;letter-spacing:0px;line-height:120.00001%;opacity:1&quot;&gt;.Replace(&quot;__&quot;, &quot;&lt;/font&gt;&lt;font style=&quot;font-family: &amp;quot;Times New Roman&amp;quot;; color: rgb(0, 0, 0); direction: ltr; letter-spacing: 0px; line-height: 120%; opacity: 1; font-size: 14px;&quot;&gt;/&lt;/font&gt;&lt;font style=&quot;font-size:13px;font-family:Times New Roman;color:#000000;direction:ltr;letter-spacing:0px;line-height:120.00001%;opacity:1&quot;&gt;&quot;)&amp;nbsp;&lt;/font&gt;&lt;/div&gt;&lt;/div&gt;&lt;/div&gt;" style="verticalAlign=middle;align=center;vsdxID=3;fillColor=#ffffff;gradientColor=none;shape=stencil(bY5bCsIwEEW3EmYBzZRCVZjMXgqdmsGYlDRWu3sx/fH1ey6ce2jxwyxmKTld5K5j8Q40eslagGlKWc453eLINA/FM13TKubhAMFsDlpEsExBY4UtNt2hDl8Yf+Hx1PTdP8mH2e6vk4awJ77Ye5Wt/fwE);strokeColor=#000000;spacingTop=-3;spacingBottom=-3;spacingLeft=-3;spacingRight=-3;labelBackgroundColor=none;rounded=0;html=1;whiteSpace=wrap;" parent="2" vertex="1">
          <mxGeometry x="555" y="260" width="210" height="75" as="geometry" />
        </mxCell>
        <mxCell id="7" value="&lt;font style=&quot;font-size:13px;font-family:Times New Roman;color:#000000;direction:ltr;letter-spacing:0px;line-height:120.00001%;opacity:1&quot;&gt;Конец&lt;/font&gt;" style="verticalAlign=middle;align=center;vsdxID=5;fillColor=#ffffff;gradientColor=none;shape=stencil(pZDBDsIgEER/ZbN3UjTpDfiXjd0WIkKzoG3/vmiN8eTF02ZeZieZMcXTzFCq5CsvYajeYkieJVR0ZszCk+R7GpyZqXpnbvnBsFpUGmGz2GvsnCG5gDR47hFkO26TJ/0xwapoDUVJrlRDThYbiyQTq/asxkhT8yOUhXl+y1/R6v/k7ig0hhiP9k/2Xbh7TeN2);strokeColor=#000000;spacingTop=-3;spacingBottom=-3;spacingLeft=-3;spacingRight=-3;labelBackgroundColor=none;rounded=0;html=1;whiteSpace=wrap;" parent="2" vertex="1">
          <mxGeometry x="555" y="760" width="210" height="80" as="geometry" />
        </mxCell>
        <mxCell id="14" value="&lt;font style=&quot;font-size:13px;font-family:Times New Roman;color:#000000;direction:ltr;letter-spacing:0px;line-height:120.00001%;opacity:1&quot;&gt;Console.WriteLine(&quot;Исходная строка: &quot; + text);&lt;/font&gt;&lt;div&gt;&lt;font style=&quot;font-size:13px;font-family:Times New Roman;color:#000000;direction:ltr;letter-spacing:0px;line-height:120.00001%;opacity:1&quot;&gt;Console.WriteLine(&quot;Результат: &quot; + result);&lt;/font&gt;&lt;/div&gt;" style="verticalAlign=middle;align=center;vsdxID=14;fillColor=#ffffff;gradientColor=none;shape=stencil(fZDdCgIhEEZfReYFXAVpL9R3EXRTMt1ct+zt86egKLqZgcOB+b7hm1WrQVtO8WRuTmcrwAVrkssg+RKTOaa4By35qrKV/ByvBhUBE6B7m1hy70JHZPoDZ9boZVcaFSLgwCqtm82ACq27WfRLo0+NEDq8D+11Y1wgP1iPgkfyxXk/ajb23gz3H8gH);strokeColor=#000000;spacingTop=-3;spacingBottom=-3;spacingLeft=-3;spacingRight=-3;labelBackgroundColor=none;rounded=0;html=1;whiteSpace=wrap;" parent="2" vertex="1">
          <mxGeometry x="555" y="618" width="210" height="120" as="geometry" />
        </mxCell>
        <mxCell id="15" value="&lt;font style=&quot;font-size:13px;font-family:Times New Roman;color:#000000;direction:ltr;letter-spacing:0px;line-height:120.00001%;opacity:1&quot;&gt;Выполняем замену уже&amp;nbsp;&lt;/font&gt;&lt;div&gt;&lt;font style=&quot;font-size:13px;font-family:Times New Roman;color:#000000;direction:ltr;letter-spacing:0px;line-height:120.00001%;opacity:1&quot;&gt;изменённых символов на другие&amp;nbsp;&lt;/font&gt;&lt;div&gt;&lt;font style=&quot;font-size:13px;font-family:Times New Roman;color:#000000;direction:ltr;letter-spacing:0px;line-height:120.00001%;opacity:1&quot;&gt;посредством обёртывания&lt;/font&gt;&lt;div&gt;&lt;font style=&quot;direction: ltr; line-height: 120%; opacity: 1;&quot;&gt;&lt;font face=&quot;Times New Roman&quot;&gt;&lt;span style=&quot;font-size: 13px;&quot;&gt;.Replace(&quot;_&quot;, &quot;o&quot;)&lt;/span&gt;&lt;/font&gt;&lt;br&gt;&lt;/font&gt;&lt;/div&gt;&lt;/div&gt;&lt;/div&gt;" style="verticalAlign=middle;align=center;vsdxID=15;fillColor=#ffffff;gradientColor=none;shape=stencil(bc5hCoMwDIbhq5QcwNbhQCHNXQTjGqyt1M7N2w/rn8n29yF8eXF1/cJqzSlO/JIhOwsSHCfJQDjGxI8Un2EgXPrsCOe4sXpbMKB2C7UxoAm9hIJddb8Vv+hx9IOdqZr238ZlWJ9PR/H+LDzsO0qXfPoA);strokeColor=#000000;spacingTop=-3;spacingBottom=-3;spacingLeft=-3;spacingRight=-3;labelBackgroundColor=none;rounded=0;html=1;whiteSpace=wrap;" parent="2" vertex="1">
          <mxGeometry x="555" y="377" width="210" height="80" as="geometry" />
        </mxCell>
        <mxCell id="17" style="vsdxID=6;edgeStyle=none;startArrow=none;endArrow=classic;startSize=5;endSize=5;strokeColor=#000000;spacingTop=0;spacingBottom=0;spacingLeft=0;spacingRight=0;verticalAlign=middle;html=1;labelBackgroundColor=#ffffff;rounded=0;exitX=0.5;exitY=1;exitDx=0;exitDy=0;exitPerimeter=0;entryX=0.5;entryY=0;entryDx=0;entryDy=0;entryPerimeter=0" parent="2" source="3" target="4" edge="1">
          <mxGeometry relative="1" as="geometry">
            <mxPoint x="660" y="105" as="sourcePoint" />
            <mxPoint x="660" y="150" as="targetPoint" />
            <Array capacity="4" as="points" />
            <mxPoint y="124" as="offset" />
          </mxGeometry>
        </mxCell>
        <mxCell id="18" style="vsdxID=17;edgeStyle=none;startArrow=none;endArrow=classic;startSize=5;endSize=5;strokeColor=#000000;spacingTop=0;spacingBottom=0;spacingLeft=0;spacingRight=0;verticalAlign=middle;html=1;labelBackgroundColor=#ffffff;rounded=0;exitX=0.5;exitY=1;exitDx=0;exitDy=0;exitPerimeter=0;entryX=0.5;entryY=0;entryDx=0;entryDy=0;entryPerimeter=0" parent="2" source="4" target="5" edge="1">
          <mxGeometry relative="1" as="geometry">
            <mxPoint x="660" y="210" as="sourcePoint" />
            <mxPoint x="660" y="255" as="targetPoint" />
            <Array capacity="4" as="points" />
            <mxPoint y="124" as="offset" />
          </mxGeometry>
        </mxCell>
      </root>
    </mxGraphModel>
  </diagram>
</mxfile>
